<?xml version="1.0" encoding="UTF-8"?>
<svg xmlns="http://www.w3.org/2000/svg" xmlns:xlink="http://www.w3.org/1999/xlink" width="64px" height="22px" viewBox="0 0 64 22" version="1.1">
<g id="surface1">
<path style=" stroke:none;fill-rule:evenodd;fill:rgb(100%,32.941177%,1.568628%);fill-opacity:1;" d="M 24.667969 12.988281 C 22.539062 12.988281 20.820312 11.253906 20.820312 9.121094 C 20.820312 6.992188 22.539062 5.257812 24.667969 5.257812 C 26.78125 5.257812 28.496094 6.992188 28.496094 9.121094 C 28.496094 11.253906 26.78125 12.988281 24.667969 12.988281 M 31.148438 3.867188 C 29.355469 2.613281 26.917969 2.089844 24.667969 2.089844 C 20.441406 2.085938 15.492188 3.914062 15.492188 9.074219 C 15.492188 9.753906 15.601562 10.386719 15.707031 10.929688 C 14.804688 11.949219 13.324219 12.957031 11.484375 12.957031 C 9.0625 12.957031 7.347656 11.394531 7.347656 8.996094 C 7.347656 6.773438 9.046875 5.132812 11.265625 5.132812 C 12.382812 5.132812 13.210938 5.519531 13.671875 5.832031 L 15.449219 2.984375 C 14.558594 2.535156 12.832031 1.902344 10.535156 1.902344 C 6.183594 1.902344 1.882812 4.269531 1.882812 9.027344 C 1.882812 13.773438 5.753906 16.21875 10.398438 16.21875 C 13.335938 16.21875 15.691406 14.734375 17.027344 13.25 C 18.757812 15.144531 21.679688 16.042969 24.667969 16.042969 C 26.851562 16.042969 29.324219 15.546875 31.148438 14.285156 Z M 31.148438 3.867188 "/>
<path style=" stroke:none;fill-rule:evenodd;fill:rgb(100%,52.549022%,1.960784%);fill-opacity:1;" d="M 53.179688 13.21875 L 53.136719 13.21875 C 50.988281 13.1875 49.242188 11.503906 49.242188 9.089844 C 49.242188 6.773438 51.035156 5.074219 53.132812 5.058594 L 53.179688 5.058594 C 55.386719 5.058594 57.035156 6.832031 57.035156 9.058594 C 57.035156 11.207031 55.433594 13.21875 53.179688 13.21875 M 37.65625 12.925781 C 35.539062 12.925781 33.824219 11.191406 33.824219 9.058594 C 33.824219 6.90625 35.539062 5.179688 37.65625 5.179688 C 39.765625 5.179688 41.480469 6.90625 41.480469 9.058594 C 41.480469 11.191406 39.765625 12.925781 37.65625 12.925781 M 54.160156 2.367188 C 53.808594 2.367188 53.472656 2.398438 53.132812 2.429688 C 51.558594 2.613281 50.316406 3.1875 49.351562 3.867188 L 49.351562 2.597656 L 45.109375 2.597656 L 45.109375 4.65625 C 43.320312 2.828125 40.148438 2.089844 37.664062 2.089844 L 37.65625 2.085938 C 35.402344 2.085938 32.945312 2.609375 31.148438 3.875 L 31.148438 14.257812 C 32.9375 15.519531 35.375 16.042969 37.65625 16.042969 L 37.664062 16.042969 C 40.515625 16.042969 43.210938 15.136719 45.019531 13.589844 L 45.019531 20.082031 L 49.351562 20.082031 L 49.351562 14.316406 C 50.023438 14.949219 51.3125 15.738281 53.132812 15.972656 C 53.503906 16.019531 53.886719 16.042969 54.285156 16.042969 C 57.695312 16.042969 62.15625 13.976562 62.15625 9.105469 C 62.15625 4.578125 58.554688 2.367188 54.160156 2.367188 Z M 54.160156 2.367188 "/>
<path style=" stroke:none;fill-rule:evenodd;fill:rgb(86.274511%,18.82353%,0.784314%);fill-opacity:1;" d="M 31.160156 14.269531 C 29.601562 13.1875 28.496094 11.503906 28.496094 9.074219 C 28.496094 6.667969 29.570312 4.980469 31.160156 3.867188 C 32.738281 4.980469 33.824219 6.667969 33.824219 9.074219 C 33.824219 11.503906 32.738281 13.171875 31.160156 14.269531 Z M 31.160156 14.269531 "/>
</g>
</svg>
